<svg width="40" height="22" viewBox="0 0 40 22" fill="none" xmlns="http://www.w3.org/2000/svg">
<path d="M0.906278 0.0549993H9.94828C14.3043 0.0549993 17.0103 2.2 17.0103 5.566C17.0103 8.536 14.8983 10.153 12.6543 10.45V10.846C15.3933 10.978 18.0333 12.661 18.0333 16.126C18.0333 19.294 15.6243 22 10.5093 22H0.906278V0.0549993ZM10.0143 9.592C12.2913 9.592 13.9743 8.338 13.9743 6.061C13.9743 3.784 12.2913 2.563 10.0143 2.563H3.81028V9.592H10.0143ZM10.6743 19.492C13.3473 19.492 14.9973 18.106 14.9973 15.796C14.9973 13.486 13.4463 12.034 10.6743 12.034H3.81028V19.492H10.6743ZM36.174 0.0549993H39.078V22H36.174V12.133H24.822V22H21.918V0.0549993H24.822V9.592H36.174V0.0549993Z" fill="#181818"/>
</svg>
